Coordinates
version=1
nRows=22
nColumns=24
inDegrees=yes

Units are S.I. units (second, meters, Newtons, ...)
Angles are in degrees.

endheader
time	pelvis_tilt	pelvis_list	pelvis_rotation	pelvis_tx	pelvis_ty	pelvis_tz	hip_flexion_r	hip_adduction_r	hip_rotation_r	knee_angle_r	ankle_angle_r	subtalar_angle_r	mtp_angle_r	hip_flexion_l	hip_adduction_l	hip_rotation_l	knee_angle_l	ankle_angle_l	subtalar_angle_l	mtp_angle_l	lumbar_extension	lumbar_bending	lumbar_rotation
      3.14000000	    -12.05327024	     -2.29231991	      9.30248745	     -1.80259625	     -0.03689058	     -0.23245313	     37.17505480	     -4.08568783	    -16.51413837	     -8.78089077	     -1.30987086	     -0.81948220	     13.51604276	     -4.02358550	     -0.55565009	      0.53461592	    -15.32118061	      7.99353024	     -1.51790183	     -2.63615788	      5.85164279	      2.16674932	    -10.50424714
      3.14500000	    -12.04026264	     -2.43488897	      9.31680173	     -1.79411210	     -0.03761595	     -0.23192695	     37.10540077	     -3.87877808	    -16.26923040	     -9.30794357	     -1.33507985	     -1.04609349	     13.79382093	     -4.26729480	     -0.90641377	      0.23534407	    -15.68616427	      7.09520767	     -1.23866484	     -0.56481584	      6.02373903	      2.30106109	    -10.57212555
      3.15000000	    -12.08691362	     -2.59755771	      9.33300358	     -1.78553511	     -0.03839333	     -0.23144045	     37.09434384	     -3.67019046	    -16.04763124	     -9.89381873	     -1.38526121	     -1.19165186	     13.83321249	     -4.40172705	     -1.26338734	     -0.02543417	    -16.20309445	      6.66248907	     -0.73207816	     -0.54920019	      6.28187022	      2.45120629	    -10.62978934
      3.15500000	    -12.11817280	     -2.76509608	      9.30357559	     -1.77689602	     -0.03913395	     -0.23080531	     37.05100706	     -3.40234517	    -15.71718380	    -10.46233608	     -1.64992745	     -1.54568922	     13.83373488	     -4.54157172	     -1.64321572	     -0.35501822	    -16.74072656	      6.17555110	     -0.16363603	     -0.45266472	      6.52830407	      2.60181527	    -10.66217459
      3.16000000	    -12.15780809	     -2.96263439	      9.26047655	     -1.76819792	     -0.03983937	     -0.23016673	     37.00055326	     -3.09454663	    -15.38487806	    -11.00810938	     -2.09882531	     -1.97294634	     13.80473267	     -4.64953438	     -2.05539924	     -0.69651962	    -17.30419589	      5.61187871	      0.36577744	     -0.29545974	      6.79898323	      2.78543541	    -10.66714931
      3.16500000	    -12.17680933	     -3.14000165	      9.17579810	     -1.75953145	     -0.04047984	     -0.22936199	     36.91984267	     -2.75770679	    -14.94061484	    -11.51756822	     -2.75751824	     -2.54967064	     13.76633600	     -4.75443033	     -2.46962341	     -1.14207946	    -17.89982336	      4.95033810	      0.98166177	      0.13243686	      7.03477530	      2.94779828	    -10.65583604
      3.17000000	    -12.24089968	     -3.40157358	      9.09337777	     -1.75080714	     -0.04106974	     -0.22860250	     36.87837492	     -2.35626310	    -14.62988163	    -11.97868091	     -3.62175742	     -3.15934737	     13.67946427	     -4.75899331	     -2.96838889	     -1.56161414	    -18.55568880	      4.21757336	      1.55246456	      0.56770570	      7.34459429	      3.19449127	    -10.63732802
      3.17500000	    -12.30812778	     -3.68867070	      8.95349875	     -1.74209192	     -0.04157606	     -0.22773524	     36.84579379	     -1.89150249	    -14.27936810	    -12.40416350	     -4.67467408	     -3.86376699	     13.54597216	     -4.72964636	     -3.50210354	     -2.04258498	    -19.25130685	      3.39233191	      2.13724264	      1.10233823	      7.65706442	      3.47237426	    -10.57695079
      3.18000000	    -12.31819850	     -4.03588912	      8.76302000	     -1.73334251	     -0.04191604	     -0.22683913	     36.75100613	     -1.33676177	    -13.96119993	    -12.79030554	     -5.85291008	     -4.56664995	     13.52612694	     -4.76445239	     -4.11980778	     -2.60788004	    -19.81951282	      1.80443589	      2.40786123	      4.47496710	      7.92060021	      3.83764685	    -10.45283907
      3.18500000	    -12.46382956	     -4.39054667	      8.59076094	     -1.72469221	     -0.04228866	     -0.22594593	     36.82991521	     -0.81548724	    -13.62791745	    -13.22445580	     -7.03095723	     -5.31385362	     13.25679973	     -4.53244719	     -4.72269270	     -3.07503269	    -20.68888688	      0.90029829	      3.02483988	      4.58561587	      8.31964180	      4.18318112	    -10.37498158
      3.19000000	    -12.57132272	     -4.76579583	      8.36258295	     -1.71605647	     -0.04251904	     -0.22499726	     36.87883257	     -0.23215018	    -13.20980931	    -13.67426113	     -8.21330660	     -6.12036998	     12.92441793	     -4.31308123	     -5.35640249	     -3.58145607	    -21.58586456	     -0.18348570	      3.58220512	      4.88273384	      8.67474143	      4.56917481	    -10.24434904
      3.19500000	    -12.60740176	     -5.18014452	      8.08962654	     -1.70741296	     -0.04259094	     -0.22397230	     36.86698249	      0.42907537	    -12.75408207	    -14.18981938	     -9.16381731	     -6.81567641	     11.86284117	     -4.16296730	     -6.06128382	     -4.17384163	    -22.37445314	     -2.04464966	      3.83633451	      7.97690095	      8.95270854	      5.01573022	    -10.05464853
      3.20000000	    -12.77489133	     -5.55124939	      7.85456965	     -1.69884774	     -0.04273736	     -0.22303497	     37.01441547	      0.98977714	    -12.30965768	    -14.76280294	    -10.09163507	     -7.55911012	     11.53083302	     -3.75865495	     -6.68960411	     -4.60038627	    -23.44120335	     -3.33658619	      4.33825320	      8.03022649	      9.36242363	      5.39550018	     -9.93600296
      3.20500000	    -12.89699874	     -5.89899501	      7.57645239	     -1.69031104	     -0.04279719	     -0.22201878	     37.11811100	      1.57199922	    -11.77641599	    -15.37786497	    -10.87287405	     -8.33820549	     11.10895561	     -3.37336692	     -7.30425152	     -5.03875794	    -24.54068934	     -4.83196076	      4.75754816	      8.29943182	      9.70652067	      5.76730373	     -9.76451476
      3.21000000	    -12.95005985	     -6.26379082	      7.28368214	     -1.68176854	     -0.04275108	     -0.22096493	     37.15054184	      2.19211899	    -11.25844543	    -16.07620041	    -11.15776034	     -8.83602632	      9.41470239	     -3.05154198	     -7.96035229	     -5.50403102	    -25.53407114	     -7.08427893	      4.82689015	     11.17481065	      9.97486652	      6.16916953	     -9.58101257
      3.21500000	    -13.07211847	     -6.55394825	      7.04020818	     -1.67333695	     -0.04276490	     -0.21999888	     37.24762711	      2.69202797	    -10.82584190	    -16.74929262	    -11.55076087	     -9.51104962	      9.16453097	     -2.54585075	     -8.50852041	     -5.77053113	    -26.78997381	     -8.76030672	      5.11094214	     11.03464502	     10.29688119	      6.47879126	     -9.45169190
      3.22000000	    -13.16884744	     -6.81286168	      6.75964386	     -1.66492776	     -0.04274697	     -0.21897032	     37.29757624	      3.19575755	    -10.37346877	    -17.41387885	    -11.75048918	    -10.11846718	      8.92485221	     -2.04096893	     -9.01998751	     -6.00371790	    -28.07582124	    -10.56569254	      5.27914398	     10.95445791	     10.57673968	      6.76479442	     -9.28147980
      3.22500000	    -13.25158889	     -7.04481568	      6.48774804	     -1.65661905	     -0.04273976	     -0.21794005	     37.31504368	      3.67298767	     -9.95472352	    -18.07126513	    -11.72854895	    -10.63524638	      8.72373918	     -1.48821330	     -9.50114179	     -6.18249634	    -29.43784292	    -12.41389737	      5.34990728	     10.88542770	     10.81949084	      7.02927731	     -9.13396449
      3.23000000	    -13.30717379	     -7.26061408	      6.21880799	     -1.64836839	     -0.04268686	     -0.21693288	     37.27241770	      4.13448886	     -9.61883124	    -18.69004785	    -11.53885719	    -11.03245729	      8.63784993	     -0.91970383	     -9.94916188	     -6.26174246	    -30.84850011	    -14.26352874	      5.31136421	     10.66707371	     11.02045995	      7.28339664	     -8.97936694
      3.23500000	    -13.36355485	     -7.45671577	      5.93703703	     -1.64024494	     -0.04264090	     -0.21591167	     37.20514704	      4.58733151	     -9.29009529	    -19.27247655	    -11.22498592	    -11.34650590	      8.65110588	     -0.29347089	    -10.35938977	     -6.27346480	    -32.33544283	    -16.03578619	      5.17940003	     10.30335857	     11.19554275	      7.52355004	     -8.81909233
      3.24000000	    -13.34853355	     -7.68590033	      5.66328105	     -1.63216348	     -0.04251354	     -0.21497160	     37.01551449	      5.07345745	     -9.05181653	    -19.78005766	    -10.78890270	    -11.57075301	      8.76350807	      0.30313701	    -10.79217063	     -6.23308711	    -33.87167181	    -17.71571747	      4.92760854	      9.86355967	     11.28997394	      7.81853309	     -8.65631234
      3.24500000	    -13.52090660	     -7.76310223	      5.33826562	     -1.62432209	     -0.04256867	     -0.21390750	     37.03057442	      5.42689205	     -8.68419762	    -20.31939829	    -10.28895205	    -11.78136077	      9.02393314	      1.16062344	    -10.99951891	     -6.08509440	    -35.49912247	    -19.28242774	      4.51798698	      8.99046749	     11.52653531	      7.93239850	     -8.45120398
